# This file uses centimeters as units for non-parametric coordinates.

mtllib cube.mtl
v -0.500000 0.000000 0.500000
v 0.500000 0.000000 0.500000
v -0.500000 1.000000 0.500000
v 0.500000 1.000000 0.500000
v -0.500000 1.000000 -0.500000
v 0.500000 1.000000 -0.500000
v -0.500000 0.000000 -0.500000
v 0.500000 0.000000 -0.500000
vt 0.000032 0.000000
vt 1.000032 0.000000
vt 1.000032 1.000000
vt 0.000032 1.000000
vt 0.000000 0.000000
vt 1.000000 0.000000
vt 1.000000 0.500000
vt 1.000000 0.500000
vt 0.000032 1.000000
vt 1.000032 1.000000
vt 1.000032 0.000000
vt 0.000032 0.000000
vt 0.000000 0.500000
vt 0.000000 0.500000
vt 1.000000 0.500000
vt 1.000000 0.500000
vt 0.000000 0.000000
vt 0.000000 1.000000
vt 1.000000 1.000000
vt 1.000000 0.000000
vt 1.000000 1.000000
vt 0.000000 1.000000
vt 0.000000 0.500000
vt 0.000000 0.500000
vn 0.000000 0.000000 1.000000
vn 0.000000 0.000000 1.000000
vn 0.000000 0.000000 1.000000
vn 0.000000 0.000000 1.000000
vn 0.000000 1.000000 0.000000
vn 0.000000 1.000000 0.000000
vn 0.000000 1.000000 0.000000
vn 0.000000 1.000000 0.000000
vn 0.000000 0.000000 -1.000000
vn 0.000000 0.000000 -1.000000
vn 0.000000 0.000000 -1.000000
vn 0.000000 0.000000 -1.000000
vn 0.000000 -1.000000 0.000000
vn 0.000000 -1.000000 0.000000
vn 0.000000 -1.000000 0.000000
vn 0.000000 -1.000000 0.000000
vn 1.000000 0.000000 0.000000
vn 1.000000 0.000000 0.000000
vn 1.000000 0.000000 0.000000
vn 1.000000 0.000000 0.000000
vn -1.000000 0.000000 0.000000
vn -1.000000 0.000000 0.000000
vn -1.000000 0.000000 0.000000
vn -1.000000 0.000000 0.000000
usemtl lambert4SG
f 1/1/1 2/2/2 3/4/3
f 3/4/3 2/2/2 4/3/4
f 3/13/5 4/14/6 5/16/7
f 5/16/7 4/14/6 6/15/8
f 5/9/9 6/10/10 7/12/11
f 7/12/11 6/10/10 8/11/12
f 7/7/13 8/8/14 1/24/15
f 1/24/15 8/8/14 2/23/16
f 2/5/17 8/20/18 4/22/19
f 4/22/19 8/20/18 6/21/20
f 7/6/21 1/17/22 5/19/23
f 5/19/23 1/17/22 3/18/24
